HIERARCHY
ROOT Hips
{
	OFFSET 0.000000 0.000000 0.000000
	CHANNELS 6 Xposition Yposition Zposition Yrotation Xrotation Zrotation
	JOINT Chest
	{
		OFFSET 0.000000 -0.009281 11.569106
		CHANNELS 3 Yrotation Xrotation Zrotation
		JOINT Chest2
		{
			OFFSET -0.000000 0.016865 9.269641
			CHANNELS 3 Yrotation Xrotation Zrotation
			JOINT Chest3
			{
				OFFSET -0.000000 0.000001 8.374491
				CHANNELS 3 Yrotation Xrotation Zrotation
				JOINT Chest4
				{
					OFFSET -0.000000 0.000001 8.374493
					CHANNELS 3 Yrotation Xrotation Zrotation
					JOINT Neck
					{
						OFFSET -0.000000 0.000002 12.152554
						CHANNELS 3 Yrotation Xrotation Zrotation
						JOINT Head
						{
							OFFSET -0.000000 0.040101 7.802319
							CHANNELS 3 Yrotation Xrotation Zrotation
							End Site
							{
								OFFSET -0.000000 0.020947 14.853096
							}
						}
					}
					JOINT RightCollar
					{
						OFFSET 2.894404 0.000001 6.791374
						CHANNELS 3 Yrotation Xrotation Zrotation
						JOINT RightShoulder
						{
							OFFSET 13.574684 0.000001 0.000000
							CHANNELS 3 Yrotation Xrotation Zrotation
							JOINT RightElbow
							{
								OFFSET 23.923903 0.000002 0.000000
								CHANNELS 3 Yrotation Xrotation Zrotation
								JOINT RightWrist
								{
									OFFSET 19.846718 0.012767 0.000000
									CHANNELS 3 Yrotation Xrotation Zrotation
									End Site
									{
										OFFSET 14.973145 0.000001 0.000000
									}
								}
							}
						}
					}
					JOINT LeftCollar
					{
						OFFSET -2.894404 0.000001 6.791374
						CHANNELS 3 Yrotation Xrotation Zrotation
						JOINT LeftShoulder
						{
							OFFSET -13.574684 -0.000001 0.000000
							CHANNELS 3 Yrotation Xrotation Zrotation
							JOINT LeftElbow
							{
								OFFSET -23.923903 -0.000002 0.000000
								CHANNELS 3 Yrotation Xrotation Zrotation
								JOINT LeftWrist
								{
									OFFSET -19.846718 0.012763 0.000000
									CHANNELS 3 Yrotation Xrotation Zrotation
									End Site
									{
										OFFSET -14.973145 -0.000001 0.000000
									}
								}
							}
						}
					}
				}
			}
		}
	}
	JOINT RightHip
	{
		OFFSET 9.469263 0.004643 0.045487
		CHANNELS 3 Yrotation Xrotation Zrotation
		JOINT RightKnee
		{
			OFFSET 0.000000 0.002661 -40.478676
			CHANNELS 3 Yrotation Xrotation Zrotation
			JOINT RightAnkle
			{
				OFFSET 0.000000 0.049106 -35.224068
				CHANNELS 3 Yrotation Xrotation Zrotation
				JOINT RightToe
				{
					OFFSET -0.000001 12.539529 -6.151390
					CHANNELS 3 Yrotation Xrotation Zrotation
					End Site
					{
						OFFSET -0.000001 5.044994 -1.291870
					}
				}
			}
		}
	}
	JOINT LeftHip
	{
		OFFSET -9.469263 0.004641 0.045487
		CHANNELS 3 Yrotation Xrotation Zrotation
		JOINT LeftKnee
		{
			OFFSET 0.000000 0.002661 -40.478676
			CHANNELS 3 Yrotation Xrotation Zrotation
			JOINT LeftAnkle
			{
				OFFSET 0.000000 0.049106 -35.224068
				CHANNELS 3 Yrotation Xrotation Zrotation
				JOINT LeftToe
				{
					OFFSET -0.000001 12.539529 -6.151390
					CHANNELS 3 Yrotation Xrotation Zrotation
					End Site
					{
						OFFSET -0.000001 5.044994 -1.291870
					}
				}
			}
		}
	}
}
MOTION
Frames: 15
Frame Time: 0.016667
-16.340305 30.650732 83.192787 -2.488255 1.703535 -105.427043 -2.197661 -4.201825 -4.235726 -0.390327 -2.252907 -0.204651 -0.390327 -2.252907 -0.204648 -0.293462 -1.689549 -0.154906 0.847011 -22.153640 -2.074584 0.954243 -4.957812 -3.513604 9.551726 4.932657 -2.252014 63.897786 19.730019 -12.085751 17.812461 21.183241 22.020115 -14.148080 20.239403 7.041760 -9.034114 2.157527 -1.031921 -55.526713 23.921614 -4.486697 -17.875998 -37.071337 -47.662163 25.712688 1.407348 -38.158518 0.928145 10.253428 -8.648803 7.009812 -19.817895 -12.431994 -5.359613 8.849005 7.380658 0.222285 0.534986 -0.484411 0.016235 3.933253 2.347783 -7.394119 -22.400401 29.887972 -7.717476 1.804404 -16.434555 5.585343 11.327459 3.411704 
-16.584249 30.226179 83.245407 -2.369207 2.117637 -104.081305 -2.600597 -3.720132 -5.511596 -0.395803 -2.210802 -0.274227 -0.395803 -2.210801 -0.274228 -0.297808 -1.657924 -0.207078 0.836175 -22.474275 -1.978379 0.967866 -5.552479 -3.341985 9.601647 4.740698 -2.455240 65.220752 19.665414 -10.584815 16.159574 26.967740 21.508346 -16.594631 21.487329 6.577560 -9.198535 1.663365 -1.121528 -58.714423 23.397771 -6.621503 -17.314775 -34.529407 -47.775848 26.183098 1.519262 -38.202174 0.529402 10.677219 -10.453089 7.121839 -20.489067 -11.988144 -5.793252 9.425893 7.185853 0.148987 0.537865 -0.500469 0.421504 6.435048 1.424368 -7.625597 -25.797051 29.992655 -8.337101 -1.030454 -17.293154 6.934608 15.058728 4.718184 
-16.775215 29.819113 83.314636 -2.425070 2.503464 -103.065908 -3.094008 -3.470506 -6.467586 -0.400227 -2.165206 -0.328192 -0.400227 -2.165206 -0.328193 -0.301299 -1.623692 -0.247534 0.861691 -22.744023 -1.902309 1.039878 -6.052216 -3.197370 9.556508 4.370534 -2.741418 66.007460 19.802906 -9.170651 15.197531 32.040773 21.213301 -19.364080 23.019986 5.846367 -9.404542 1.254909 -1.249635 -61.630293 22.308636 -8.488449 -16.798126 -31.829416 -47.731063 26.510940 1.769651 -38.356751 0.170322 10.863803 -11.761200 7.249878 -21.043408 -11.558036 -6.273419 9.999104 6.863042 0.135522 0.470624 -0.464544 0.642119 8.646809 0.970876 -7.726704 -28.843349 29.455857 -8.201105 -4.286963 -17.325719 7.762586 19.194946 5.505175 
-16.835548 29.504259 83.139381 -2.775318 3.001527 -102.326472 -3.810187 -3.530688 -7.183520 -0.400811 -2.123010 -0.367182 -0.400811 -2.123009 -0.367177 -0.301850 -1.592018 -0.276745 0.903074 -22.954148 -1.841771 1.134642 -6.441207 -3.077004 9.481643 3.895403 -2.961964 66.298973 20.370313 -7.908149 14.675375 36.203974 21.112285 -22.148645 24.637283 5.045396 -9.564363 1.034201 -1.231525 -64.267873 20.625320 -10.060450 -16.307867 -29.068254 -47.527929 26.605412 2.136906 -38.586307 -0.355334 10.711829 -12.569306 7.439625 -21.445662 -11.413283 -6.842663 10.146757 6.350321 0.237282 0.766387 -0.251562 0.534026 10.495690 0.638270 -7.839105 -31.651168 28.916958 -7.764321 -7.395602 -16.979789 8.238833 23.181447 6.053324 
-16.591818 29.114500 82.959045 -3.720138 2.615060 -103.042884 -3.889538 -4.291102 -6.481643 -0.400616 -2.076986 -0.397203 -0.400616 -2.076986 -0.397202 -0.301780 -1.557480 -0.299230 0.932629 -23.109805 -1.780220 1.207016 -6.729382 -2.958324 9.401260 3.442004 -3.136441 66.142623 21.283325 -6.852272 14.517181 39.523071 21.219084 -24.855769 26.174711 4.549049 -9.725684 0.891326 -1.135491 -66.651158 18.803224 -11.356938 -15.845279 -26.482486 -47.061830 26.578185 2.329201 -38.973800 0.041246 9.734299 -11.748723 7.719750 -21.840817 -11.620658 -7.173806 10.214137 6.324719 0.193150 1.184917 -0.303237 1.345299 11.438938 1.527311 -8.080635 -34.168547 28.624169 -6.656100 -9.559376 -15.979316 7.425207 26.386088 5.382166 
-15.964681 28.664930 82.733856 -4.939565 1.243710 -105.211264 -3.225446 -5.481631 -4.349844 -0.414503 -2.032765 -0.415504 -0.414503 -2.032766 -0.415502 -0.312228 -1.524294 -0.312971 0.955369 -23.219039 -1.716185 1.266724 -6.931555 -2.837164 9.379136 3.174179 -3.317445 65.528828 22.461333 -6.060907 14.586303 42.120148 21.578944 -27.327184 27.685646 4.384593 -9.933321 0.586191 -1.271460 -68.735636 17.433855 -12.534760 -15.508920 -24.261493 -46.176218 26.530685 2.426955 -39.589088 1.406831 8.124614 -9.325884 8.083895 -22.265032 -11.978001 -7.201479 10.277188 6.590178 -0.036502 1.685297 -0.621907 3.217279 11.490446 3.823796 -8.192855 -35.945728 28.285803 -4.824746 -9.586134 -13.825268 4.534727 27.349857 3.144506 
-15.303501 28.319767 82.477859 -5.445612 0.017002 -107.154105 -2.503734 -6.023825 -2.515578 -0.451198 -2.005148 -0.431359 -0.451198 -2.005148 -0.431355 -0.339781 -1.503544 -0.324962 0.964346 -23.289002 -1.641724 1.303605 -7.061062 -2.700908 9.349838 3.044750 -3.543444 64.699534 23.925844 -5.383620 14.836436 44.093915 22.263425 -29.630081 29.224286 4.372939 -10.166694 0.300595 -1.484724 -70.530719 16.269616 -13.550843 -15.199845 -22.360228 -44.874971 26.422599 2.647226 -40.281225 2.621472 7.099785 -7.070646 8.538693 -22.650941 -12.363779 -7.195729 10.707338 6.514191 -0.203858 1.833369 -0.701352 4.892814 11.792873 5.908674 -7.750701 -36.601355 27.752665 -3.187396 -8.853443 -11.355025 1.338177 26.539334 1.188429 
-14.680277 28.089094 82.228867 -5.601626 -0.773284 -108.376572 -1.993804 -6.181051 -1.485622 -0.502895 -1.997498 -0.450537 -0.502895 -1.997499 -0.450538 -0.378606 -1.497755 -0.339513 0.947534 -23.327891 -1.547499 1.298688 -7.133224 -2.535859 9.226723 2.910411 -3.900674 63.896467 25.626465 -4.658647 15.601691 45.558035 23.564076 -32.067765 30.809535 4.417440 -10.337551 0.176131 -1.585981 -72.042288 15.078577 -14.281913 -14.941551 -20.704057 -43.233772 26.139627 3.023542 -40.882227 3.350963 6.451501 -5.715759 8.946353 -22.921615 -12.803127 -7.161833 11.148145 6.399089 -0.290217 1.925144 -0.538902 5.920417 12.337416 7.190080 -6.855028 -36.437201 27.205511 -1.729568 -7.826183 -9.209613 -1.536169 24.537371 0.014922 
-14.147899 27.906034 82.005005 -5.450165 -1.254890 -109.251936 -1.617304 -6.000651 -0.889230 -0.551020 -1.996397 -0.472318 -0.551020 -1.996396 -0.472316 -0.414768 -1.496874 -0.356004 0.885580 -23.342452 -1.427241 1.218964 -7.160742 -2.335763 9.041261 2.746974 -4.245012 63.076244 27.609407 -3.970146 17.206222 46.564046 25.744632 -34.867228 32.492446 4.436997 -10.378314 0.032644 -1.592401 -73.405996 13.868999 -14.808057 -14.738520 -19.112324 -41.407759 25.635612 3.360604 -41.320435 3.847618 6.066708 -5.061424 9.141488 -22.973189 -12.912574 -7.008778 11.690639 6.468141 -0.386131 1.750144 -0.359299 6.615401 13.110143 8.036956 -5.713863 -35.604871 26.869256 -0.394947 -6.536282 -7.304836 -4.096160 21.544380 -0.640994 
-13.698525 27.730206 81.815056 -5.195616 -1.496101 -109.906295 -1.419757 -5.691076 -0.575473 -0.596354 -1.994364 -0.488489 -0.596354 -1.994364 -0.488487 -0.448815 -1.495299 -0.368272 0.794710 -23.341944 -1.285979 1.092522 -7.160518 -2.105425 8.946149 2.707549 -4.378611 62.111732 29.740481 -3.553519 19.566861 47.201682 28.877709 -37.788554 34.198563 4.350306 -10.342743 -0.114054 -1.607410 -74.596321 12.614972 -15.109355 -14.446152 -17.412695 -39.533920 24.976202 3.349424 -41.678163 4.168126 5.801648 -4.925892 9.174882 -22.879037 -12.528420 -6.890192 12.163416 6.338254 -0.458286 1.483339 -0.142549 7.024234 13.840509 8.458779 -4.615339 -34.082989 26.672997 0.832480 -5.041749 -5.552489 -6.121466 17.785616 -0.908510 
-13.350171 27.529432 81.662743 -4.850695 -1.554541 -110.471439 -1.364115 -5.261642 -0.427654 -0.643282 -1.976992 -0.503019 -0.643282 -1.976991 -0.503018 -0.484042 -1.482218 -0.379306 0.680387 -23.342547 -1.113557 0.932060 -7.162427 -1.825185 8.897019 2.734738 -4.420308 61.133861 31.787301 -3.206335 22.222254 47.395892 32.514094 -40.464899 35.841424 4.268772 -10.273706 -0.285075 -1.584560 -75.619019 11.414597 -15.200342 -13.985737 -15.707509 -37.686826 24.312255 2.837105 -42.149876 4.393850 5.658568 -4.986846 9.142122 -22.639733 -11.990353 -6.848781 12.530709 6.184209 -0.482413 1.172996 0.099627 7.206612 14.489353 8.347485 -3.911684 -31.959801 26.655978 1.924197 -3.379204 -3.822913 -7.418695 13.537366 -0.917536 
-13.071211 27.273573 81.556015 -4.562454 -1.563507 -111.006406 -1.355649 -4.884292 -0.391039 -0.690514 -1.949991 -0.516877 -0.690514 -1.949991 -0.516877 -0.519487 -1.461914 -0.389824 0.541147 -23.337493 -0.909210 0.735097 -7.153854 -1.494026 8.785847 2.865025 -4.593307 60.247514 33.563140 -2.776331 24.935364 47.074989 36.302835 -42.836747 37.296637 4.403130 -10.243071 -0.476979 -1.622232 -76.362225 10.635044 -15.069602 -13.383952 -14.384933 -35.867369 23.876270 2.117879 -42.817329 4.617544 5.435077 -5.110133 9.054509 -22.226318 -11.436034 -6.889694 12.669629 6.191271 -0.461274 0.937486 0.284674 7.247391 14.971032 7.594228 -3.613157 -29.551787 26.793990 2.602005 -1.773969 -2.127558 -7.835009 9.267872 -0.743812 
-12.855238 26.983772 81.495392 -4.281718 -1.483201 -111.426784 -1.399155 -4.495511 -0.543149 -0.742268 -1.914260 -0.527538 -0.742268 -1.914260 -0.527538 -0.558302 -1.435058 -0.397939 0.387093 -23.325989 -0.683388 0.517091 -7.133170 -1.128098 8.650810 3.125877 -4.812375 59.344932 35.100762 -2.376966 27.631689 46.202056 40.111802 -45.087014 38.487201 4.705211 -10.218111 -0.559852 -1.574006 -76.924261 10.292879 -14.745528 -12.565807 -13.762079 -33.964977 23.741353 1.534270 -43.571457 4.811558 5.225169 -5.312119 8.891630 -21.702468 -10.834689 -6.939820 12.610609 6.225281 -0.440049 0.770569 0.379670 7.090947 15.457770 6.212001 -3.542150 -26.918336 26.784291 2.872233 -0.501310 -0.557691 -5.987944 4.271322 -0.385310 
-12.702515 26.698666 81.477791 -4.007286 -1.298992 -111.785751 -1.519113 -4.110847 -0.803708 -0.807548 -1.883775 -0.524474 -0.807547 -1.883774 -0.524471 -0.607224 -1.412142 -0.395809 0.246527 -23.286149 -0.457115 0.323398 -7.059571 -0.757819 8.547821 3.422998 -4.977792 58.458968 36.552481 -1.987282 30.189330 44.792978 43.854852 -47.304603 39.363364 4.996661 -10.188539 -0.484619 -1.505965 -77.323684 10.341601 -14.298355 -11.528950 -13.788782 -31.931845 23.789424 1.266479 -44.205657 4.904300 5.122232 -5.412614 8.765545 -21.183681 -10.286058 -6.937554 12.352940 6.233004 -0.483943 0.696380 0.351112 6.733624 15.976057 4.597420 -3.421779 -24.055177 26.296763 2.759177 0.338969 0.643475 -4.008783 0.480795 -0.191991 
-12.592781 26.419205 81.506012 -3.877795 -1.155630 -112.414955 -1.674348 -3.898644 -0.823346 -0.879762 -1.863227 -0.505078 -0.879761 -1.863227 -0.505080 -0.661304 -1.396698 -0.381462 0.119278 -23.209343 -0.236494 0.152263 -6.917118 -0.394238 8.464952 3.688734 -5.091748 57.725808 37.881383 -1.448641 32.372658 42.946348 47.380763 -49.475992 39.963034 5.120011 -10.126529 -0.311849 -1.393835 -77.578375 10.453838 -13.765719 -10.572513 -13.874080 -29.858770 23.862212 1.143904 -44.530702 4.935171 4.939348 -5.072679 8.812792 -20.675148 -9.978893 -6.912634 11.803795 6.323941 -0.586643 0.790322 0.340208 6.334406 16.286209 3.404720 -3.040374 -21.080657 25.275873 2.391675 0.729040 1.435920 -2.213128 -2.274326 -0.193241 
